<svg id="icons" enable-background="new 0 0 64 64" height="512" viewBox="0 0 64 64" width="512" xmlns="http://www.w3.org/2000/svg"><g><path d="m23.85 11.5v-3.99c3.32 0 6-2.68 6-6 5.53 0 10 4.471 10 9.99h-.01c0 4.42-3.57 8-7.99 8-4.409 0-7.989-3.58-7.989-8zm8.33-6.59c-.97 2.359-2.91 4.22-5.33 5.07v1.479c0 .01.011.03.011.04 0 2.76 2.239 5 4.989 5s4.99-2.24 4.99-5c0-.01.01-.02.01-.03-.02-3.029-1.97-5.599-4.67-6.559z" fill="#fc6e51"/></g><g><path d="m36.85 11.47c0 .011-.01.021-.01.03 0 2.76-2.24 5-4.99 5s-4.989-2.24-4.989-5c0-.01-.011-.03-.011-.04v-1.48c2.42-.851 4.36-2.711 5.33-5.07 2.7.96 4.65 3.53 4.67 6.56z" fill="#ffce54"/></g><g><path d="m56 22.49v2h-4v-2-1.99h4z" fill="#ed5565"/></g><g><path d="m54 45.49v5h-9v-4c0-1.66 1.34-3 3-3h3z" fill="#656d78"/></g><g><path d="m63 46.49v4h-9v-5l3-2h3c1.66 0 3 1.34 3 3z" fill="#656d78"/></g><g><path d="m47 30.62v-.13h14v2.99.01c0 2.79-1.64 5.2-4 6.31-.91.44-1.92.681-3 .681s-2.09-.24-3-.681c-2.36-1.109-4-3.52-4-6.31v-.01z" fill="#eac6bb"/></g><g><path d="m56 24.49v-2c2.76 0 5 2.24 5 5v3h-14v-3c0-2.76 2.24-5 5-5v2 3h4z" fill="#da4453"/></g><g><path d="m57 39.81v3.681l-3 2-3-2v-3.681-.01c.91.44 1.92.681 3 .681s2.09-.24 3-.681z" fill="#eac6bb"/></g><g><path d="m52 24.49h4v3h-4z" fill="#ffce54"/></g><g><path d="m12 22.49v2h-4v-2-1.99h4z" fill="#ed5565"/></g><g><path d="m17 33.48v.01c0 2.79-1.64 5.2-4 6.31-.91.44-1.92.681-3 .681s-2.09-.241-3-.681c-2.36-1.109-4-3.52-4-6.31v-.01-2.86-.13h14z" fill="#eac6bb"/></g><g><path d="m13.997 30.49v2.99.01c0 2.79-1.64 5.2-4 6.31-.474.229-.976.401-1.499.517.483.105.983.163 1.502.163 1.08 0 2.09-.24 3-.681 2.36-1.109 4-3.52 4-6.31v-.01-2.99h-3.003z" fill="#d3b1a9"/></g><g><path d="m57.997 30.49v2.99.01c0 2.79-1.64 5.2-4 6.31-.474.229-.976.401-1.499.517.483.105.983.164 1.502.164 1.08 0 2.09-.24 3-.681 2.36-1.109 4-3.52 4-6.31v-.01-2.99z" fill="#d3b1a9"/></g><g><path d="m13 39.81v3.681l-3 2-3-2v-3.681-.01c.91.44 1.92.681 3 .681s2.09-.24 3-.681z" fill="#eac6bb"/></g><g><path d="m8 24.49h4v3h-4z" fill="#ffce54"/></g><g><path d="m19 46.49v4h-9v-5l3-2h3c1.66 0 3 1.34 3 3z" fill="#656d78"/></g><g><path d="m16 43.49h-3c1.658.002 2.997 1.341 2.997 3v4h3.003v-4c0-1.66-1.34-3-3-3z" fill="#545c66"/></g><g><path d="m60 43.49h-3c1.658.002 2.997 1.341 2.997 3v4h3.003v-4c0-1.66-1.34-3-3-3z" fill="#545c66"/></g><g><path d="m17 27.49v3h-14v-3c0-2.76 2.24-5 5-5v2 3h4v-3-2c2.76 0 5 2.24 5 5z" fill="#da4453"/></g><g><path d="m10 45.49v5h-9v-4c0-1.66 1.34-3 3-3h3z" fill="#656d78"/></g><g><path d="m30 29.49h4v4h-4z" fill="#ffce54"/></g><g><path d="m41 36.49h-18v-3c0-3.87 3.13-7 7-7v3 4h4v-4-3c3.87 0 7 3.13 7 7z" fill="#da4453"/></g><g><path d="m34 26.49v3h-4v-3-2h4z" fill="#ed5565"/></g><g><path d="m36 48.56v3.931l-4 2-4-2v-3.931-.01c1.2.601 2.57.94 4 .94s2.8-.34 4-.94z" fill="#eac6bb"/></g><g><path d="m44 57.49v4c0 .55-.45 1-1 1h-11v-8l4-2h3c2.77 0 5 2.24 5 5z" fill="#656d78"/></g><g><path d="m39 52.49h-3c2.768.002 4.997 2.241 4.997 5v4c0 .55-.45 1-1 1h3.003c.55 0 1-.45 1-1v-4c0-2.76-2.23-5-5-5z" fill="#545c66"/></g><g><path d="m41 36.49v4c0 3.529-2.04 6.59-5 8.06-1.2.601-2.57.94-4 .94s-2.8-.34-4-.94c-2.95-1.46-4.98-4.5-5-8.01v-.05-4z" fill="#eac6bb"/></g><g><path d="m37.997 36.49v4c0 3.529-2.04 6.59-5 8.06-.771.386-1.616.649-2.499.8.491.083.99.141 1.502.141 1.43 0 2.8-.34 4-.94 2.96-1.47 5-4.53 5-8.06v-4h-3.003z" fill="#d3b1a9"/></g><g><path d="m32 54.49v8h-11c-.55 0-1-.45-1-1v-4c0-2.76 2.24-5 5-5h3z" fill="#656d78"/></g><g><path d="m20 58.492c-.553 0-1-.447-1-1 0-3.309 2.691-6 6-6 .553 0 1 .447 1 1s-.447 1-1 1c-2.206 0-4 1.794-4 4 0 .553-.447 1-1 1z"/></g><g><path d="m28 53.492h-3c-.553 0-1-.447-1-1s.447-1 1-1h3c.553 0 1 .447 1 1s-.447 1-1 1z"/></g><g><path d="m20 62.492c-.553 0-1-.447-1-1v-4c0-.553.447-1 1-1s1 .447 1 1v4c0 .553-.447 1-1 1z"/></g><g><path d="m21 63.492c-1.103 0-2-.897-2-2 0-.531.418-.914.948-.943.561-.022.992.416 1.052.942.552 0 1 .448 1 1 0 .553-.447 1.001-1 1.001z"/></g><g><path d="m44 58.492c-.553 0-1-.447-1-1 0-2.206-1.794-4-4-4-.553 0-1-.447-1-1s.447-1 1-1c3.309 0 6 2.691 6 6 0 .553-.447 1-1 1z"/></g><g><path d="m39 53.492h-3c-.553 0-1-.447-1-1s.447-1 1-1h3c.553 0 1 .447 1 1s-.447 1-1 1z"/></g><g><path d="m44 62.492c-.553 0-1-.447-1-1v-4c0-.553.447-1 1-1s1 .447 1 1v4c0 .553-.447 1-1 1z"/></g><g><path d="m43 63.492c-.553 0-1-.447-1-1s.447-1 1-1c0-.553.447-1 1-1s1 .447 1 1c0 1.103-.897 2-2 2z"/></g><g><path d="m43 63.492h-22c-.553 0-1-.447-1-1s.447-1 1-1h22c.553 0 1 .447 1 1s-.447 1-1 1z"/></g><g><path d="m28 53.492c-.553 0-1-.447-1-1v-3.936c0-.553.447-1 1-1s1 .447 1 1v3.936c0 .553-.447 1-1 1z"/></g><g><path d="m36 53.492c-.553 0-1-.447-1-1v-3.936c0-.553.447-1 1-1s1 .447 1 1v3.936c0 .553-.447 1-1 1z"/></g><g><path d="m32 50.492c-5.514 0-10-4.485-10-9.999 0-.553.447-1 1-1s1 .447 1 1c0 4.411 3.589 7.999 8 7.999s8-3.588 8-7.999c0-.553.447-1 1-1s1 .447 1 1c0 5.514-4.486 9.999-10 9.999z"/></g><g><path d="m23 41.542c-.553 0-1-.447-1-1v-4.052c0-.553.447-1 1-1s1 .447 1 1v4.052c0 .553-.447 1-1 1z"/></g><g><path d="m41 41.493c-.553 0-1-.447-1-1v-4.003c0-.553.447-1 1-1s1 .447 1 1v4.003c0 .553-.447 1-1 1z"/></g><g><path d="m31.999 55.493c-.15 0-.303-.034-.446-.105l-4-2.001c-.494-.247-.694-.848-.447-1.342.248-.494.849-.692 1.342-.447l4 2.001c.494.247.694.848.447 1.342-.176.35-.529.552-.896.552z"/></g><g><path d="m32.001 55.493c-.367 0-.72-.202-.896-.553-.247-.494-.047-1.095.447-1.342l4-2.001c.494-.245 1.095-.047 1.342.447s.047 1.095-.447 1.342l-4 2.001c-.143.072-.296.106-.446.106z"/></g><g><path d="m32 63.492c-.553 0-1-.447-1-1v-7.999c0-.553.447-1 1-1s1 .447 1 1v7.999c0 .553-.447 1-1 1z"/></g><g><g><path d="m43.002 37.493h-22.002c-.553 0-1-.447-1-1s.447-1 1-1h22.002c.553 0 1 .447 1 1s-.447 1-1 1z"/></g><g><path d="m34 34.493h-4c-.553 0-1-.447-1-1v-4c0-.553.447-1 1-1h4c.553 0 1 .447 1 1v4c0 .553-.447 1-1 1zm-3-2h2v-2h-2z"/></g><g><path d="m34 30.493h-4c-.553 0-1-.447-1-1v-4.999c0-.553.447-1 1-1h4c.553 0 1 .447 1 1v4.999c0 .553-.447 1-1 1zm-3-2h2v-2.999h-2z"/></g><g><path d="m23 34.487c-.553 0-1-.447-1-1 0-4.411 3.589-8 8-8 .553 0 1 .447 1 1s-.447 1-1 1c-3.309 0-6 2.691-6 6 0 .553-.447 1-1 1z"/></g><g><path d="m23 37.49c-.553 0-1-.447-1-1v-3.003c0-.553.447-1 1-1s1 .447 1 1v3.003c0 .553-.447 1-1 1z"/></g><g><path d="m41 34.487c-.553 0-1-.447-1-1 0-3.309-2.691-6-6-6-.553 0-1-.447-1-1s.447-1 1-1c4.411 0 8 3.589 8 8 0 .553-.447 1-1 1z"/></g><g><path d="m41 37.49c-.553 0-1-.447-1-1v-3.003c0-.553.447-1 1-1s1 .447 1 1v3.003c0 .553-.447 1-1 1z"/></g></g><g><g><path d="m3 34.488c-.553 0-1-.447-1-1v-2.867c0-.553.447-1 1-1s1 .447 1 1v2.867c0 .553-.447 1-1 1z"/></g><g><path d="m17 34.488c-.553 0-1-.447-1-1v-2.994c0-.553.447-1 1-1s1 .447 1 1v2.994c0 .553-.447 1-1 1z"/></g><g><path d="m1 47.488c-.553 0-1-.447-1-1 0-2.206 1.794-4 4-4 .553 0 1 .447 1 1s-.447 1-1 1c-1.103 0-2 .897-2 2 0 .553-.447 1-1 1z"/></g><g><path d="m7 44.494h-3c-.553 0-1-.447-1-1s.447-1 1-1h3c.553 0 1 .447 1 1s-.447 1-1 1z"/></g><g><path d="m1 51.492c-.553 0-1-.447-1-1v-4.004c0-.553.447-1 1-1s1 .447 1 1v4.004c0 .553-.447 1-1 1z"/></g><g><path d="m19 47.488c-.553 0-1-.447-1-1 0-1.103-.897-2-2-2-.553 0-1-.447-1-1s.447-1 1-1c2.206 0 4 1.794 4 4 0 .553-.447 1-1 1z"/></g><g><path d="m16 44.494h-3c-.553 0-1-.447-1-1s.447-1 1-1h3c.553 0 1 .447 1 1s-.447 1-1 1z"/></g><g><path d="m19 51.492c-.553 0-1-.447-1-1v-4.004c0-.553.447-1 1-1s1 .447 1 1v4.004c0 .553-.447 1-1 1z"/></g><g><path d="m19 51.492h-18c-.553 0-1-.447-1-1s.447-1 1-1h18c.553 0 1 .447 1 1s-.447 1-1 1z"/></g><g><path d="m7 44.494c-.553 0-1-.447-1-1v-3.684c0-.553.447-1 1-1s1 .447 1 1v3.685c0 .552-.447.999-1 .999z"/></g><g><path d="m13 44.488c-.553 0-1-.447-1-1v-3.678c0-.553.447-1 1-1s1 .447 1 1v3.679c0 .552-.447.999-1 .999z"/></g><g><path d="m10 41.483c-4.411 0-8-3.588-8-7.999 0-.553.447-1 1-1s1 .447 1 1c0 3.308 2.691 5.999 6 5.999s6-2.691 6-5.999c0-.553.447-1 1-1s1 .447 1 1c0 4.412-3.589 7.999-8 7.999z"/></g><g><path d="m19 31.493h-17.998c-.553 0-1-.447-1-1s.447-1 1-1h17.998c.553 0 1 .447 1 1s-.447 1-1 1z"/></g><g><path d="m12 28.493h-4c-.553 0-1-.447-1-1v-2.999c0-.553.447-1 1-1h4c.553 0 1 .447 1 1v2.999c0 .553-.447 1-1 1zm-3-2h2v-.999h-2z"/></g><g><path d="m12 25.494h-4c-.553 0-1-.447-1-1v-3.998c0-.553.447-1 1-1h4c.553 0 1 .447 1 1v3.998c0 .553-.447 1-1 1zm-3-2h2v-1.998h-2z"/></g><g><path d="m3 28.489c-.553 0-1-.447-1-1 0-3.309 2.691-6 6-6 .553 0 1 .447 1 1s-.447 1-1 1c-2.206 0-4 1.794-4 4 0 .553-.447 1-1 1z"/></g><g><path d="m3.002 31.49c-.553 0-1-.447-1-1v-3.003c0-.553.447-1 1-1s1 .447 1 1v3.003c0 .553-.447 1-1 1z"/></g><g><path d="m17 28.489c-.553 0-1-.447-1-1 0-2.206-1.794-4-4-4-.553 0-1-.447-1-1s.447-1 1-1c3.309 0 6 2.691 6 6 0 .553-.447 1-1 1z"/></g><g><path d="m16.998 31.49c-.553 0-1-.447-1-1v-3.003c0-.553.447-1 1-1s1 .447 1 1v3.003c0 .553-.447 1-1 1z"/></g><g><path d="m9.999 46.492c-.19 0-.383-.055-.554-.168l-3-1.998c-.459-.306-.584-.927-.277-1.387.306-.46.926-.584 1.387-.277l3 1.998c.459.306.584.927.277 1.387-.192.289-.51.445-.833.445z"/></g><g><path d="m10.001 46.492c-.323 0-.641-.156-.833-.445-.307-.46-.182-1.081.277-1.387l3-1.998c.461-.307 1.081-.183 1.387.277.307.46.182 1.081-.277 1.387l-3 1.998c-.171.114-.364.168-.554.168z"/></g><g><path d="m10 51.524c-.553 0-1-.447-1-1v-5.032c0-.553.447-1 1-1s1 .447 1 1v5.032c0 .553-.447 1-1 1z"/></g></g><g><g><path d="m47 34.488c-.553 0-1-.447-1-1v-2.867c0-.553.447-1 1-1s1 .447 1 1v2.867c0 .553-.447 1-1 1z"/></g><g><path d="m61 34.488c-.553 0-1-.447-1-1v-2.994c0-.553.447-1 1-1s1 .447 1 1v2.994c0 .553-.447 1-1 1z"/></g><g><path d="m45 47.488c-.553 0-1-.447-1-1 0-2.206 1.794-4 4-4 .553 0 1 .447 1 1s-.447 1-1 1c-1.103 0-2 .897-2 2 0 .553-.447 1-1 1z"/></g><g><path d="m51 44.494h-3c-.553 0-1-.447-1-1s.447-1 1-1h3c.553 0 1 .447 1 1s-.447 1-1 1z"/></g><g><path d="m45 51.492c-.553 0-1-.447-1-1v-4.004c0-.553.447-1 1-1s1 .447 1 1v4.004c0 .553-.447 1-1 1z"/></g><g><path d="m63 47.488c-.553 0-1-.447-1-1 0-1.103-.897-2-2-2-.553 0-1-.447-1-1s.447-1 1-1c2.206 0 4 1.794 4 4 0 .553-.447 1-1 1z"/></g><g><path d="m60 44.494h-3c-.553 0-1-.447-1-1s.447-1 1-1h3c.553 0 1 .447 1 1s-.447 1-1 1z"/></g><g><path d="m63 51.492c-.553 0-1-.447-1-1v-4.004c0-.553.447-1 1-1s1 .447 1 1v4.004c0 .553-.447 1-1 1z"/></g><g><path d="m63 51.492h-18c-.553 0-1-.447-1-1s.447-1 1-1h18c.553 0 1 .447 1 1s-.447 1-1 1z"/></g><g><path d="m51 44.494c-.553 0-1-.447-1-1v-3.684c0-.553.447-1 1-1s1 .447 1 1v3.685c0 .552-.447.999-1 .999z"/></g><g><path d="m57 44.488c-.553 0-1-.447-1-1v-3.678c0-.553.447-1 1-1s1 .447 1 1v3.679c0 .552-.447.999-1 .999z"/></g><g><path d="m54 41.483c-4.411 0-8-3.588-8-7.999 0-.553.447-1 1-1s1 .447 1 1c0 3.308 2.691 5.999 6 5.999s6-2.691 6-5.999c0-.553.447-1 1-1s1 .447 1 1c0 4.412-3.589 7.999-8 7.999z"/></g><g><path d="m62.998 31.493h-17.998c-.553 0-1-.447-1-1s.447-1 1-1h17.998c.553 0 1 .447 1 1s-.447 1-1 1z"/></g><g><path d="m56 28.493h-4c-.553 0-1-.447-1-1v-2.999c0-.553.447-1 1-1h4c.553 0 1 .447 1 1v2.999c0 .553-.447 1-1 1zm-3-2h2v-.999h-2z"/></g><g><path d="m56 25.494h-4c-.553 0-1-.447-1-1v-3.998c0-.553.447-1 1-1h4c.553 0 1 .447 1 1v3.998c0 .553-.447 1-1 1zm-3-2h2v-1.998h-2z"/></g><g><path d="m47 28.489c-.553 0-1-.447-1-1 0-3.309 2.691-6 6-6 .553 0 1 .447 1 1s-.447 1-1 1c-2.206 0-4 1.794-4 4 0 .553-.447 1-1 1z"/></g><g><path d="m47.002 31.49c-.553 0-1-.447-1-1v-3.003c0-.553.447-1 1-1s1 .447 1 1v3.003c0 .553-.447 1-1 1z"/></g><g><path d="m61 28.489c-.553 0-1-.447-1-1 0-2.206-1.794-4-4-4-.553 0-1-.447-1-1s.447-1 1-1c3.309 0 6 2.691 6 6 0 .553-.447 1-1 1z"/></g><g><path d="m60.998 31.49c-.553 0-1-.447-1-1v-3.003c0-.553.447-1 1-1s1 .447 1 1v3.003c0 .553-.447 1-1 1z"/></g><g><path d="m53.999 46.492c-.19 0-.383-.055-.554-.168l-3-1.998c-.459-.306-.584-.927-.277-1.387.305-.46.925-.584 1.387-.277l3 1.998c.459.306.584.927.277 1.387-.192.289-.51.445-.833.445z"/></g><g><path d="m54.001 46.492c-.323 0-.641-.156-.833-.445-.307-.46-.182-1.081.277-1.387l3-1.998c.46-.307 1.081-.183 1.387.277.307.46.182 1.081-.277 1.387l-3 1.998c-.171.114-.364.168-.554.168z"/></g><g><path d="m54 51.524c-.553 0-1-.447-1-1v-5.032c0-.553.447-1 1-1s1 .447 1 1v5.032c0 .553-.447 1-1 1z"/></g></g><g><g><path d="m31.85 20.496c-4.958 0-8.992-4.034-8.992-8.992 0-.553.447-1 1-1s1 .447 1 1c0 3.855 3.137 6.992 6.992 6.992 3.856 0 6.994-3.137 6.994-6.992 0-.553.447-1 1-1s1 .447 1 1c0 4.958-4.035 8.992-8.994 8.992z"/></g><g><path d="m39.85 12.505c-.553 0-1-.447-1-1 0-4.961-4.035-8.997-8.996-8.997-.553 0-1-.447-1-1s.447-1 1-1c6.063 0 10.996 4.934 10.996 10.997 0 .553-.448 1-1 1z"/></g><g><path d="m23.852 8.51c-.553 0-1-.447-1-1s.447-1 1-1c2.757 0 5-2.243 5-5.001 0-.553.447-1 1-1s1 .447 1 1c0 3.86-3.141 7.001-7 7.001z"/></g><g><path d="m23.852 12.504c-.553 0-1-.447-1-1v-3.994c0-.553.447-1 1-1s1 .447 1 1v3.994c0 .553-.448 1-1 1z"/></g></g><g><path d="m31.85 17.496c-3.284 0-5.96-2.656-5.992-5.934-.004-.038-.006-.076-.006-.107v-1.471c0-.423.267-.801.665-.942 2.148-.763 3.875-2.406 4.738-4.508.203-.493.756-.741 1.259-.563 3.171 1.122 5.314 4.132 5.334 7.488 0 .028-.001.062-.004.095-.028 3.281-2.706 5.942-5.994 5.942zm-3.998-6.097c.004.037.006.074.006.104 0 2.201 1.791 3.992 3.992 3.992 2.202 0 3.994-1.791 3.994-3.992 0-.024.001-.053.004-.081-.029-2.192-1.272-4.185-3.18-5.204-1.059 1.973-2.757 3.543-4.816 4.444z"/></g></svg>